<svg width="248" height="80" viewBox="0 0 248 80" fill="none" xmlns="http://www.w3.org/2000/svg">
<path d="M102.93 27.1113L112.131 42.7913L121.298 27.1113H125.434V52.4061H121.264V34.7618L113.854 47.4092H110.339L102.861 34.6929V52.4061H98.7258V27.1113H102.93Z" fill="white"/>
<path d="M146.343 44.7212H131.524C132.11 47.6159 134.419 49.339 137.486 49.339C139.657 49.339 141.587 48.3741 142.655 46.8578L145.86 48.9255C144.309 51.3033 141.07 52.8886 137.486 52.8886C131.662 52.8886 127.492 48.7532 127.492 43.2049C127.492 37.7255 131.49 33.5556 136.969 33.5556C142.448 33.5556 146.446 37.3119 146.446 42.7224C146.446 43.515 146.411 44.1698 146.343 44.7212ZM131.524 41.6541H142.414C142.242 38.8972 140.071 37.0363 137.003 37.0363C134.247 37.0363 132.11 38.7593 131.524 41.6541Z" fill="white"/>
<path d="M159.912 33.9692V37.7944C159.43 37.6221 158.741 37.5187 157.81 37.5187C156.259 37.5187 154.95 38.0356 153.95 39.1039C152.951 40.1378 152.469 41.4473 152.469 43.067V52.4061H148.299V34.0381H152.469V37.3119C153.399 35.1064 155.398 33.6935 157.879 33.6935C158.741 33.6935 159.43 33.7969 159.912 33.9692Z" fill="white"/>
<path d="M190.912 42.1021V52.4061H186.742V42.3778C186.742 39.035 185.364 37.1741 182.71 37.1741C180.091 37.1741 178.161 39.6553 178.161 42.7569V52.4061H173.991V42.3778C173.991 39.035 172.613 37.1741 169.994 37.1741C167.34 37.1741 165.411 39.6553 165.411 42.7569V52.4061H161.241V34.0381H165.411V36.8295C166.375 34.8996 168.374 33.5556 170.89 33.5556C173.819 33.5556 175.99 34.8996 177.196 37.3464C178.403 35.0375 180.539 33.5556 183.572 33.5556C188.155 33.5556 190.912 36.7261 190.912 42.1021Z" fill="white"/>
<path d="M207.935 34.0381H212.071V52.4061H207.935V49.6147C206.695 51.7169 204.42 52.8886 201.663 52.8886C196.46 52.8886 192.669 48.6843 192.669 43.2049C192.669 37.7944 196.46 33.5556 201.663 33.5556C204.42 33.5556 206.695 34.7273 207.935 36.8295V34.0381ZM207.901 43.2049C207.901 39.5175 205.592 37.1741 202.318 37.1741C198.941 37.1741 196.632 39.7932 196.632 43.2049C196.632 46.6166 198.941 49.2701 202.318 49.2701C205.592 49.2701 207.901 46.8923 207.901 43.2049Z" fill="white"/>
<path d="M227.534 48.443L228.499 51.7513C227.499 52.4406 225.742 52.8886 224.053 52.8886C219.539 52.8886 217.264 50.3384 217.264 45.2726V37.6566H213.232V34.0381H217.264V29.0756H221.434V34.0381H227.879V37.6566H221.434V45.2036C221.434 47.8572 222.468 49.2012 224.536 49.2012C225.673 49.2012 226.672 48.9599 227.534 48.443Z" fill="white"/>
<path d="M247.533 44.7212H232.714C233.3 47.6159 235.609 49.339 238.676 49.339C240.847 49.339 242.777 48.3741 243.846 46.8578L247.05 48.9255C245.5 51.3033 242.26 52.8886 238.676 52.8886C232.852 52.8886 228.682 48.7532 228.682 43.2049C228.682 37.7255 232.68 33.5556 238.159 33.5556C243.639 33.5556 247.636 37.3119 247.636 42.7224C247.636 43.515 247.602 44.1698 247.533 44.7212ZM232.714 41.6541H243.604C243.432 38.8972 241.261 37.0363 238.194 37.0363C235.437 37.0363 233.3 38.7593 232.714 41.6541Z" fill="white"/>
<path d="M30.2559 0C46.966 0 60.5127 17.9086 60.5127 40C60.5125 62.0912 46.9659 80 30.2559 80C13.546 79.9997 0.000199631 62.091 0 40C0 17.9088 13.5459 0.000346166 30.2559 0ZM25.8496 70.9131C25.0498 70.8006 24.445 70.8415 23.8506 71.04C23.3691 71.201 23.5286 71.8025 24.0303 71.8809C26.0843 72.1663 27.5608 73.1171 29.5557 73.2041C29.7884 73.2137 29.805 72.9635 29.6113 72.834C28.8494 72.3247 26.8528 71.3441 26.1738 71.0137C26.0712 70.9637 25.9626 70.929 25.8496 70.9131ZM44.9736 30.6748C44.7831 30.3302 44.2435 30.5121 43.875 30.6514C42.8238 31.0488 40.7605 31.8846 39.6699 32.4775C39.1798 32.7442 39.2868 33.1088 39.8447 33.125C41.0903 33.1605 42.2664 32.6165 43.3047 31.9717C43.3717 31.9301 43.4524 31.9165 43.5293 31.9336C43.5954 31.9484 43.6605 31.9836 43.6787 32.0488C43.8378 32.6252 42.3764 34.165 41.334 34.3926C41.1152 34.4403 40.8856 34.4371 40.6738 34.5098C40.422 34.5963 40.1378 34.719 39.8691 34.8447C39.4525 35.0398 39.2383 35.5045 39.3398 35.9531C39.4605 36.4859 39.5673 36.9825 39.6406 37.4893C39.7195 38.0348 38.9925 38.2543 38.6514 37.8213C38.585 37.737 38.5185 37.6533 38.4521 37.5693C38.1677 37.2095 37.6031 37.4077 37.6631 37.8623L37.7148 38.3066C37.7231 38.378 37.737 38.4495 37.7568 38.5186C37.784 38.6128 37.8106 38.7058 37.8379 38.7969C38.2331 40.1145 37.2197 41.0102 36.4443 39.874C36.2847 39.6407 36.0179 39.8371 36.0576 40.1172C36.4623 42.9739 39.1091 45.2446 41.0137 47.1729C41.1484 47.3093 41.7667 47.9656 41.9922 48.2666C42.05 48.3438 42.0707 48.4389 42.0986 48.5312C42.085 48.4853 42.1369 48.4604 42.1689 48.4961C43.0012 49.4327 43.8297 50.9841 44.1875 52.1318C44.3336 52.5236 43.9092 52.7261 43.6777 52.3779C43.6063 52.2705 43.5358 52.1643 43.4668 52.0615C42.9071 51.1389 41.9561 49.9967 41.252 49.1182C41.2328 49.094 41.241 49.058 41.2686 49.0439L41.2949 49.0303L41.2373 49.0596C41.2233 49.0668 41.2065 49.0647 41.1943 49.0547C40.9353 48.8369 40.7148 48.5929 40.4717 48.3584C39.2551 47.1849 37.909 48.0903 39.1016 49.2881C40.5762 50.7687 43.162 53.7054 43.3828 55.9941C43.403 56.2039 43.4163 56.4138 43.4307 56.624C43.4598 57.0506 43.4502 57.6533 43.3584 58.2051C43.2041 59.1326 42.6446 58.9137 42.6221 57.9736C42.6115 57.6617 42.5837 57.3499 42.5391 57.041C42.3108 55.4801 41.3061 53.7456 40.0674 52.209C39.2271 51.1668 38.0754 52.0172 38.875 53.0908C40.4855 55.2527 41.7401 57.8754 41.082 60.6445C40.3489 63.7292 37.1168 65.8441 33.9863 65.126C31.3956 64.4906 29.5427 62.2115 26.9072 61.5742C26.3677 61.4438 25.8903 61.3811 25.4521 61.376C24.4375 61.3642 24.7948 62.7778 25.7969 62.9375C28.5473 63.3756 30.5883 65.8463 33.207 66.6816C34.5735 67.1169 34.9769 67.8327 33.5488 67.7012C33.2429 67.673 32.9346 67.6326 32.6289 67.5908C29.8847 67.2759 28.1334 64.3236 25.4121 64.0039C24.3959 63.8846 23.517 63.9406 22.7607 64.1475C20.8073 64.6819 22.4785 65.653 24.5029 65.7139C26.2216 65.7656 27.4697 66.8283 28.8613 67.6973C29.4874 68.0854 30.144 68.4246 30.8232 68.71C31.5545 69.0247 32.6164 69.3383 33.4062 69.5137C33.7947 69.5995 34.2123 69.5553 34.6543 69.6777C34.6784 69.6845 34.6965 69.7048 34.7012 69.7295C34.7063 69.7572 34.6936 69.7851 34.6689 69.7988C34.1836 70.0667 33.5721 70.0768 33.0527 70.1914C30.1213 70.7792 28.4997 68.1867 25.749 67.5654C22.3304 66.7935 20.93 68.2529 19.8223 71.3164C19.7578 71.4945 19.6723 71.7314 19.6709 71.9463C19.6698 72.1159 19.8381 72.2528 19.957 72.1318C20.911 71.1594 21.7063 70.2312 22.9561 69.6182C25.5731 68.3351 27.3139 70.5888 29.6338 71.4062C31.8293 72.3731 36.2842 72.0283 37.8008 69.9092C39.8481 67.0477 39.929 66.7328 42.9824 65.3018C43.2074 65.1962 43.346 64.9609 43.3184 64.7139C43.2734 64.3129 42.8515 64.1069 42.4668 64.2285C42.2688 64.2911 42.0653 64.3245 41.8486 64.3027C41.8172 64.2995 41.7893 64.2812 41.7734 64.2539C41.7547 64.2216 41.7546 64.1812 41.7783 64.1523C42.1089 63.7509 43.6634 63.0838 44.2041 62.7373C44.6473 62.4534 45.0495 62.11 45.3994 61.7168C47.3913 59.4875 48.9329 54.7247 49.1523 51.7119C49.3482 49.0206 48.8614 44.9808 47.9873 42.4316C47.5077 41.0333 46.5357 39.6819 45.8047 38.2578C45.143 36.9691 43.3602 36.106 41.918 36.2422C41.6734 36.2653 41.4511 36.2611 41.2695 36.2207C41.056 36.1729 40.935 35.9577 41.1006 35.8145C41.148 35.7733 41.2099 35.7002 41.248 35.6504C41.66 35.1128 42.8524 34.936 43.4766 34.5605C43.8702 34.3238 44.8753 33.7905 44.9805 33.2725C45.0826 32.7672 45.2352 31.1485 44.9736 30.6748ZM22.7725 6.79785C21.6592 6.84133 22.0154 7.88384 23.0674 8.25098C24.2623 8.66798 25.2844 9.44158 26.2129 10.626C26.8797 11.4236 27.5184 12.0579 28.4395 12.5332C30.7864 13.848 32.9762 10.2243 35.2998 11.2119C36.8135 11.8555 37.007 13.7029 38.9912 13.8652C39.9915 13.9471 39.482 14.9836 38.5107 14.7305C38.1407 14.634 37.7719 14.5162 37.4033 14.3535C36.9844 14.1684 36.0558 13.3031 35.6523 12.9902C33.617 11.4129 32.0579 13.5139 30.0498 13.7656C27.2943 14.1299 26.2503 11.7656 24.3643 10.375C22.511 9.00867 20.0942 8.15473 18.0137 9.54492C17.1279 10.1368 16.3567 10.7694 15.3428 11.0713C14.4716 11.3306 14.23 10.7425 13.7285 10.7334C13.6663 10.7324 13.6128 10.7739 13.5859 10.8301C13.5727 10.858 13.5665 10.8892 13.5693 10.9199C13.6204 11.4723 14.007 11.9121 14.501 12.2441C15.4652 12.8923 16.7485 12.8124 17.7061 12.1543C18.878 11.3488 19.7623 10.3838 21.6064 10.7783C23.9645 11.1245 24.9854 13.5803 26.7041 14.7881C29.1335 16.4949 31.3046 14.9951 33.6631 14.2617C34.9859 13.8507 36.2297 15.3972 37.1621 16.0596C37.3875 16.2194 37.7805 16.3037 38.1787 16.377C38.8053 16.4922 38.7995 16.8249 38.1719 16.9346C36.8507 17.1657 36.0943 16.2038 35.0518 15.6748C33.4584 14.8914 31.5613 16.3304 30.1191 16.8057C27.5097 17.6656 25.8213 15.6441 24.3184 13.9033C23.5476 13.0105 22.5027 12.2074 21.3242 12.1572C21.2221 12.1529 21.1185 12.1582 21.0146 12.1758C20.606 12.2447 20.3311 12.0681 20.0059 12.4131C19.9917 12.4278 19.97 12.4327 19.9512 12.4248C19.7418 12.3368 19.656 12.2906 19.5244 12.3164C19.4088 12.3395 19.3791 12.486 19.4541 12.5771C19.4901 12.6209 19.545 12.645 19.6016 12.6426L19.8623 12.6309C20.4733 12.6002 20.6104 13.1385 21.0244 13.4268C21.3209 13.633 21.7383 13.4642 22.0879 13.7441L22.0889 13.7451C22.4449 13.8185 22.766 13.8559 22.9326 14.0928C23.0694 14.2874 22.989 14.5645 22.7803 14.6787C22.6431 14.7537 22.4888 14.8053 22.3643 14.8926C21.2959 15.641 19.6697 17.1691 18.7793 18.1211C18.7491 18.1534 18.7294 18.193 18.7207 18.2363C18.7079 18.3005 18.7201 18.37 18.7676 18.415C19.5338 19.1414 22.2545 17.065 23.2207 16.9902C25.0086 16.7964 26.0124 18.4128 27.7412 18.6191C30.1594 18.9075 32.0221 16.975 34.3867 17.1504C34.8432 17.1845 35.9332 17.8707 36.2646 18.2539C36.2822 18.2742 36.2937 18.299 36.2998 18.3252C36.3156 18.3929 36.2933 18.4668 36.2334 18.502C36.1582 18.5459 36.0812 18.5611 35.9756 18.5342C34.837 18.2429 33.8964 18.0192 32.7383 18.4434C31.0031 19.0791 29.2848 19.9425 27.373 19.8301C26.2778 19.7758 25.8274 19.2617 24.9453 18.7324C23.2013 17.8264 21.5601 18.6087 20.3291 19.8711C20.2711 19.9306 20.2318 20.0058 20.2139 20.0869C20.1279 20.4756 20.5369 20.7723 20.8916 20.5918C21.3315 20.3677 21.7482 20.2195 22.4248 20.1289C24.2371 19.8864 25.1818 20.9693 26.7461 21.374C28.4598 21.8173 30.2563 21.322 31.7705 20.5078C32.2639 20.2588 33.0013 19.9861 33.5596 19.9453C34.671 19.8644 35.6858 20.7978 36.7881 20.2334C36.9166 20.1676 37.0546 20.0709 37.1924 19.9951C37.396 19.8834 37.628 20.0549 37.4961 20.2461C36.6641 21.4507 36.4639 22.9282 35.624 24.1416C34.9191 25.1596 33.5899 25.554 33.1494 26.7822C32.2454 29.9095 31.1984 33.922 30.8535 37.1387C30.7655 37.9616 31.3755 40.5232 31.5391 41.4141C31.7752 42.7002 32.4672 44.6449 32.4854 45.8896C32.4969 46.697 31.706 47.9901 31.4424 48.9014C31.4127 49.0183 31.4023 49.1396 31.4131 49.2598C31.4179 49.3128 31.4232 49.3645 31.4277 49.4141C31.5272 50.5119 31.5454 51.9711 32.541 51.498C32.8847 51.3348 33.2259 51.0907 33.5459 50.8408C34.0181 50.4721 34.394 49.9734 34.4893 49.3818C34.8007 47.4471 34.129 45.0843 33.875 43.2891C33.6855 41.9491 33.5588 40.547 33.4062 39.2002C33.38 38.408 33.1339 37.1593 33.3301 36.3975C33.8624 34.3313 35.0385 32.3241 35.7832 30.3047C36.1214 29.3881 36.9633 28.3085 37.8145 27.8633C37.952 27.7916 38.0786 27.9875 38.0791 28.1426C38.0801 28.4888 37.8142 28.6166 37.6992 28.9668C37.5283 29.4882 37.9341 29.821 38.3789 29.5C38.4934 29.4173 38.6051 29.3328 38.7061 29.2559L39.04 29.001L39.498 28.6943C39.5388 28.6673 39.5786 28.6415 39.6172 28.6162C40.4639 28.0617 40.8422 29.0744 39.9277 29.5078C39.6498 29.6395 39.3805 29.7474 39.1377 29.8174L38.6465 30.1367C38.221 30.4211 37.9536 30.6381 37.4912 31.1045C37.4268 31.1694 37.3669 31.256 37.3262 31.3379C37.2148 31.5622 37.3984 31.7603 37.6475 31.7354C39.2252 31.5756 44.2348 29.3498 45.377 29.1758C45.5445 29.1503 45.5218 28.8958 45.4336 28.751C44.6726 27.5018 40.1197 25.0494 39.0928 24.208C38.8334 23.9954 38.5366 23.5176 38.3623 23.0225C38.0872 22.2407 38.7276 22.1328 39.3232 22.709C40.0371 23.3997 40.8884 22.6474 41.4268 21.8125C41.506 21.6896 41.6044 21.5722 41.7275 21.458C42.1741 21.044 42.5469 20.5257 42.5615 19.917C42.593 18.6057 42.6785 17.2851 42.7471 15.9482C42.8238 14.4526 42.2603 13.1666 40.6621 12.79C40.1538 12.6706 39.193 12.7721 38.7441 12.4902C38.0626 12.0619 37.5859 11.0393 37.0332 10.4824C33.7592 7.18465 31.3611 11.3673 29.1543 10.7227C27.3619 10.1987 25.9156 6.67515 22.7725 6.79785ZM40.4434 18.9902C40.8867 18.6652 41.5133 18.954 41.3838 19.4883C41.3551 19.606 41.2849 19.7117 41.1807 19.7734C40.9675 19.8995 40.7773 19.839 40.5312 19.7178C40.4507 19.678 40.3474 19.595 40.2812 19.5342C40.1121 19.3785 40.2252 19.1536 40.4092 19.0156C40.4204 19.0072 40.4318 18.9987 40.4434 18.9902Z" fill="white"/>
</svg>
